<svg xmlns="http://www.w3.org/2000/svg" width="70" height="70" viewBox="0 0 70 70">
    <defs>
        <rect id="a" width="70" height="70" rx="35"/>
    </defs>
    <g fill="none" fill-rule="evenodd">
        <rect width="65" height="65" x="2.5" y="2.5" stroke="#194867" stroke-width="5" rx="32.5"/>
        <g stroke="#D43E51" stroke-linecap="square" stroke-width="2">
            <g transform="translate(18 22)">
                <path d="M4 25.56V11.928M12 11.928V25.56"/>
                <ellipse cx="7.935" cy="2.556" rx="2.645" ry="2.556"/>
                <path d="M15.87 17.04l-1.338-6.465C14.285 9.38 13.2 8.52 11.939 8.52H3.932c-1.26 0-2.346.86-2.594 2.055L0 17.04M4.408 19h7.054"/>
            </g>
            <g transform="translate(36 22)">
                <path d="M5 25.95v-5.066M10 25.95v-5.066"/>
                <ellipse cx="7.833" cy="2.533" rx="2.611" ry="2.533"/>
                <path d="M15.666 16.887l-2.825-6.85c-.396-.963-1.356-1.593-2.424-1.593H5.249c-1.068 0-2.028.63-2.424 1.592L0 16.887"/>
                <path d="M11.314 12.666l1.741 7.599H2.611l1.74-7.6"/>
            </g>
        </g>
    </g>
</svg>
