<svg xmlns="http://www.w3.org/2000/svg" width="70" height="70" viewBox="0 0 70 70">
    <defs>
        <rect id="a" width="70" height="70" rx="35"/>
    </defs>
    <g fill="none" fill-rule="evenodd">
        <rect width="65" height="65" x="2.5" y="2.5" stroke="#194867" stroke-width="5" rx="32.5"/>
        <g stroke="#D43E51" stroke-width="2" transform="translate(18 21)">
            <path d="M30.6 12.27l-1.813-9.482C28.56 1.115 27.087 0 25.5 0h-17a3.483 3.483 0 0 0-3.4 2.788L3.4 12.27"/>
            <path d="M7.933 12.27L9.52 4.461h14.96l1.587 7.807"/>
            <path stroke-linecap="square" d="M7.933 23.423V29H2.267v-5.577M31.733 23.423V29h-5.666v-5.577"/>
            <path stroke-linecap="square"
                  d="M34 23.423H0v-6.47c0-.891.34-1.784 1.02-2.341l2.38-2.343h27.2l2.38 2.343c.68.669 1.02 1.45 1.02 2.342v6.47z"/>
            <ellipse cx="6.8" cy="17.846" stroke-linecap="square" rx="2.267" ry="2.231"/>
            <ellipse cx="27.2" cy="17.846" stroke-linecap="square" rx="2.267" ry="2.231"/>
            <path stroke-linecap="square" d="M13.6 17h6.8"/>
        </g>
    </g>
</svg>
