<svg xmlns="http://www.w3.org/2000/svg" xmlns:xlink="http://www.w3.org/1999/xlink" width="40" height="20" viewBox="0 0 40 20">
    <defs>
        <path id="a" d="M15.85 1.75H4.15v9.6h-1.5V.25h14.7v11.1h-1.5v-9.6zm-9.6 3.6v-1.5h7.5v1.5h-7.5zm0 3.6v-1.5h7.5v1.5h-7.5zm6 3.3h7.5V16a3.748 3.748 0 0 1-3.743 3.75H3.993A3.755 3.755 0 0 1 .25 16v-3.75h7.5v1.8h4.5v-1.8zm1.5 1.5v1.8h-7.5v-1.8h-4.5V16a2.255 2.255 0 0 0 2.243 2.25h12.014A2.248 2.248 0 0 0 18.25 16v-2.25h-4.5z"/>
    </defs>
    <g fill="none" fill-rule="evenodd">
        <mask id="b" fill="#fff">
            <use xlink:href="#a"/>
        </mask>
        <use fill="#517790" fill-rule="nonzero" xlink:href="#a"/>
        <g fill="#517790" mask="url(#b)">
            <path d="M0 0h20v20H0z"/>
        </g>
        <path fill="#FFF" d="M10 3h20v9H10z"/>
        <path fill="#517790" d="M15.724 5.404c.44.456.66 1.108.66 1.956 0 .848-.22 1.5-.66 1.956-.44.456-1.073.684-1.9.684h-2.24V4.72h2.24c.827 0 1.46.228 1.9.684zm-1.06 3.156c.208-.267.312-.667.312-1.2 0-.533-.104-.933-.312-1.2-.208-.267-.533-.4-.976-.4h-.728v3.2h.728c.443 0 .768-.133.976-.4zm6.135-3.696c.355.15.684.392.988.728l-.776.896a1.705 1.705 0 0 0-.62-.588 1.802 1.802 0 0 0-.852-.188c-.277 0-.49.048-.64.144-.149.096-.224.224-.224.384 0 .133.08.241.236.324.158.083.426.159.804.228.731.133 1.252.328 1.564.584.312.256.468.616.468 1.08 0 .336-.096.627-.288.872a1.782 1.782 0 0 1-.796.56 3.229 3.229 0 0 1-1.148.192c-.597 0-1.082-.073-1.456-.22a2.52 2.52 0 0 1-.968-.676l.704-.96c.208.288.443.49.704.608.262.117.576.176.944.176.294 0 .514-.041.66-.124.147-.083.22-.201.22-.356 0-.123-.078-.223-.236-.3-.157-.077-.42-.15-.788-.22a5.898 5.898 0 0 1-1.124-.324 1.65 1.65 0 0 1-.688-.508c-.162-.213-.244-.485-.244-.816 0-.33.09-.627.268-.888.18-.261.44-.465.784-.612.344-.147.751-.22 1.22-.22.502 0 .93.075 1.284.224zM27.535 10h-1.528l-1.64-2.856-.4-.8h-.008l.032.992V10h-1.216V4.72h1.528l1.64 2.856.4.8h.008l-.032-.992V4.72h1.216V10z"/>
    </g>
</svg>
